<svg xmlns="http://www.w3.org/2000/svg" viewBox="0 0 36 32" width="36" height="32">
	<style>
		tspan { white-space:pre }
		.shp0 { fill: #ffffff } 
	</style>
	<g id="Features">
		<g id="F3">
			<path id="Box" class="shp0" d="M28 2C28 0.89 27.1 0 26 0L10 0C8.9 0 8 0.89 8 2L0 16L0 30C0 31.1 0.9 32 2 32L34 32C35.1 32 36 31.1 36 30L36 16L28 2ZM11.46 4L24.54 4L30.25 14L23 14C22.45 14 22 14.45 22 15L22 15.82C22 17.91 20.48 19.78 18.4 19.98C16.02 20.21 14 18.34 14 16L14 15C14 14.45 13.55 14 13 14L5.75 14L11.46 4ZM31 28L5 28C4.45 28 4 27.55 4 27L4 18L10.26 18C11.15 21.45 14.27 24 18 24C21.73 24 24.85 21.45 25.74 18L32 18L32 27C32 27.55 31.55 28 31 28Z" />
		</g>
	</g>
</svg>