<svg xmlns="http://www.w3.org/2000/svg" viewBox="0 0 22 15" width="22" height="15">
	<style>
		tspan { white-space:pre }
		.shp0 { fill: #6d6b6b } 
	</style>
	<g id="About the app">
		<g id="icons">
			<path id="Video Camera" class="shp0" d="M13.26 0.34L1.26 0.34C0.59 0.34 0.06 0.87 0.06 1.54L0.06 13.54C0.06 14.2 0.59 14.74 1.26 14.74L13.26 14.74C13.92 14.74 14.46 14.2 14.46 13.54L14.46 1.54C14.46 0.87 13.92 0.34 13.26 0.34ZM11.46 12.34L3.06 12.34C2.72 12.34 2.46 12.07 2.46 11.74L2.46 3.34C2.46 3.01 2.72 2.74 3.06 2.74L10.86 2.74L11.46 2.74C11.79 2.74 12.06 3.01 12.06 3.34L12.06 3.94L12.06 11.74C12.06 12.07 11.79 12.34 11.46 12.34ZM19.26 4.54L19.26 10.54L14.46 8.56L14.46 6.51L19.26 4.54M20.46 1.54C20.32 1.54 20.17 1.56 20.03 1.62L12.06 4.9L12.06 10.17L20.03 13.45C20.17 13.51 20.32 13.54 20.46 13.54C21.09 13.54 21.66 12.97 21.66 12.22L21.66 2.86C21.66 2.1 21.09 1.54 20.46 1.54L20.46 1.54Z" />
		</g>
	</g>
</svg>