<svg xmlns="http://www.w3.org/2000/svg" viewBox="0 0 22 17" width="22" height="17">
	<style>
		tspan { white-space:pre }
		.shp0 { fill: #6d6b6b } 
	</style>
	<g id="About the app">
		<g id="icons">
			<path id="Camera" class="shp0" d="M20.46 2.54L15.66 2.54L13.61 0.49C13.38 0.26 13.08 0.14 12.76 0.14L8.95 0.14C8.63 0.14 8.33 0.26 8.1 0.49L6.06 2.54L1.26 2.54C0.59 2.54 0.06 3.07 0.06 3.74L0.06 15.74C0.06 16.4 0.59 16.94 1.26 16.94L3.06 16.94L3.66 16.94C4.32 16.94 4.86 16.4 4.86 15.74C4.86 15.07 4.32 14.54 3.66 14.54L3.06 14.54C2.72 14.54 2.46 14.27 2.46 13.94L2.46 5.54C2.46 5.21 2.72 4.94 3.06 4.94L6.06 4.94L7.05 4.94L7.75 4.23L9.45 2.54L12.26 2.54L13.96 4.23L14.66 4.94L15.66 4.94L18.66 4.94C18.99 4.94 19.26 5.21 19.26 5.54L19.26 13.94C19.26 14.27 18.99 14.54 18.66 14.54L18.06 14.54C17.39 14.54 16.86 15.07 16.86 15.74C16.86 16.39 17.38 16.93 18.04 16.94L18.04 16.94L18.06 16.94L18.66 16.94L20.46 16.94C21.12 16.94 21.66 16.4 21.66 15.74L21.66 3.74C21.66 3.07 21.12 2.54 20.46 2.54ZM10.86 8.54C12.18 8.54 13.26 9.61 13.26 10.94C13.26 12.26 12.18 13.34 10.86 13.34C9.53 13.34 8.46 12.26 8.46 10.94C8.46 9.61 9.53 8.54 10.86 8.54M10.86 6.14C8.2 6.14 6.06 8.29 6.06 10.94C6.06 13.59 8.2 15.74 10.86 15.74C13.51 15.74 15.66 13.59 15.66 10.94C15.66 8.29 13.51 6.14 10.86 6.14L10.86 6.14Z" />
		</g>
	</g>
</svg>