<svg xmlns="http://www.w3.org/2000/svg" viewBox="0 0 32 32" width="32" height="32">
	<style>
		tspan { white-space:pre }
		.shp0 { fill: #ffffff } 
	</style>
	<g id="Features">
		<g id="F5">
			<path id="Cogwheel" class="shp0" d="M30.33 13.72L27.68 13.28C27.37 11.97 26.85 10.74 26.15 9.63L27.63 7.56C28.19 6.77 28.1 5.69 27.42 5.01L26.99 4.58C26.31 3.9 25.23 3.81 24.44 4.37L22.37 5.84C21.26 5.15 20.03 4.63 18.72 4.32L18.28 1.67C18.12 0.71 17.28 0 16.31 0L15.69 0C14.72 0 13.88 0.71 13.72 1.67L13.28 4.32C11.97 4.63 10.74 5.15 9.63 5.84L7.56 4.37C6.77 3.81 5.69 3.9 5.01 4.58L4.58 5.01C3.9 5.69 3.81 6.77 4.37 7.56L5.84 9.63C5.15 10.74 4.63 11.97 4.32 13.28L1.67 13.72C0.71 13.88 0 14.72 0 15.69L0 16.31C0 17.28 0.71 18.12 1.67 18.28L4.32 18.72C4.63 20.03 5.15 21.26 5.84 22.37L4.37 24.44C3.81 25.23 3.9 26.31 4.58 26.99L5.01 27.42C5.69 28.1 6.77 28.19 7.56 27.63L9.63 26.15C10.74 26.85 11.97 27.37 13.28 27.68L13.72 30.33C13.88 31.29 14.72 32 15.69 32L16.31 32C17.28 32 18.12 31.29 18.28 30.33L18.72 27.68C20.03 27.37 21.26 26.85 22.37 26.15L24.44 27.63C25.23 28.19 26.31 28.1 26.99 27.42L27.42 26.99C28.1 26.31 28.19 25.23 27.63 24.44L26.15 22.37C26.85 21.26 27.37 20.03 27.68 18.72L30.33 18.28C31.29 18.12 32 17.28 32 16.31L32 15.69C32 14.72 31.29 13.88 30.33 13.72ZM16 22C12.69 22 10 19.31 10 16C10 12.69 12.69 10 16 10C19.31 10 22 12.69 22 16C22 19.31 19.31 22 16 22Z" />
		</g>
	</g>
</svg>