<svg xmlns="http://www.w3.org/2000/svg" viewBox="0 0 20 14" width="20" height="14">
	<style>
		tspan { white-space:pre }
		.shp0 { fill: #47ae77 } 
	</style>
	<g id="Subscription box">
		<g id="sub. form">
			<path id="Envelope copy" class="shp0" d="M18.73 -0.08L1.26 -0.08C0.57 -0.08 0 0.48 0 1.18L0 3.42L0 12.72C0 13.41 0.57 13.98 1.26 13.98L18.73 13.98C19.42 13.98 19.99 13.41 19.99 12.72L19.99 3.42L19.99 1.18C19.99 0.48 19.42 -0.08 18.73 -0.08ZM17.08 1.96L10 7.19L2.92 1.96L17.08 1.96ZM18 11.41C18 11.76 17.72 12.04 17.37 12.04L2.63 12.04C2.28 12.04 2 11.76 2 11.41L2 4.65L9.37 9.75C9.56 9.87 9.78 9.93 10 9.93C10.22 9.93 10.44 9.87 10.63 9.75L18 4.65L18 11.41Z" />
		</g>
	</g>
</svg>