<svg xmlns="http://www.w3.org/2000/svg" viewBox="0 0 22 17" width="22" height="17">
	<style>
		tspan { white-space:pre }
		.shp0 { fill: #6d6c6c } 
	</style>
	<g id="About the app">
		<g id="icons">
			<path id="Eyeball" class="shp0" d="M10.86 2.54C13.7 2.54 16.59 4.71 18.9 8.54C16.59 12.37 13.7 14.54 10.86 14.54C8.01 14.54 5.12 12.37 2.81 8.54C5.12 4.71 8.01 2.54 10.86 2.54M10.86 0.14C6.94 0.14 3.03 2.94 0.06 8.54L0.06 8.54L0.06 8.54C3.03 14.14 6.94 16.94 10.86 16.94C14.77 16.94 18.69 14.14 21.66 8.54L21.66 8.54C18.69 2.94 14.77 0.14 10.86 0.14L10.86 0.14ZM13.26 8.54C13.26 9.86 12.18 10.94 10.86 10.94C9.53 10.94 8.46 9.86 8.46 8.54C8.46 7.21 9.53 6.14 10.86 6.14C12.18 6.14 13.26 7.21 13.26 8.54Z" />
		</g>
	</g>
</svg>