<svg xmlns="http://www.w3.org/2000/svg" viewBox="0 0 17 20" width="17" height="20">
	<style>
		tspan { white-space:pre }
		.shp0 { fill: #6d6b6b } 
	</style>
	<g id="About the app">
		<g id="icons">
			<path id="Location" class="shp0" d="M8.46 -0.06C3.82 -0.06 0.06 3.68 0.06 8.29C0.06 14.92 6.08 18.26 7.87 19.04C8.02 19.1 8.19 19.14 8.35 19.14C8.39 19.14 8.42 19.13 8.46 19.13C8.49 19.13 8.52 19.14 8.56 19.14C8.72 19.14 8.89 19.1 9.04 19.04C10.83 18.26 16.86 14.92 16.86 8.29C16.86 3.68 13.1 -0.06 8.46 -0.06ZM8.56 16.61C8.53 16.6 8.49 16.57 8.46 16.56C8.42 16.57 8.38 16.6 8.35 16.61C6.81 15.83 2.46 13.2 2.46 8.29C2.46 5.01 5.15 2.34 8.46 2.34C11.76 2.34 14.46 5.01 14.46 8.29C14.46 13.2 10.1 15.83 8.56 16.61ZM8.46 5.94C7.13 5.94 6.06 7.01 6.06 8.34C6.06 9.66 7.13 10.74 8.46 10.74C9.78 10.74 10.86 9.66 10.86 8.34C10.86 7.01 9.78 5.94 8.46 5.94L8.46 5.94Z" />
		</g>
	</g>
</svg>