<svg xmlns="http://www.w3.org/2000/svg" viewBox="0 0 36 32" width="36" height="32">
	<style>
		tspan { white-space:pre }
		.shp0 { fill: #ffffff } 
	</style>
	<g id="Features">
		<g id="F2">
			<path id="Painting" class="shp0" d="M15.99 11.99C15.99 14.2 14.2 15.99 11.99 15.99C9.78 15.99 7.99 14.2 7.99 11.99C7.99 9.78 9.78 7.99 11.99 7.99C14.2 7.99 15.99 9.78 15.99 11.99ZM8.57 31.41L8.57 31.41C7.79 30.64 7.79 29.38 8.57 28.61L24.6 12.57C25.38 11.79 26.63 11.79 27.41 12.57L27.41 12.57C28.18 13.34 28.18 14.6 27.41 15.37L11.37 31.41C10.6 32.18 9.34 32.18 8.57 31.41ZM32.62 23.41L24.57 15.35C23.8 14.58 23.8 13.34 24.57 12.56L24.57 12.56C25.34 11.79 26.59 11.79 27.36 12.56L35.41 20.62C36.18 21.39 36.18 22.64 35.41 23.41L35.41 23.41C34.64 24.18 33.39 24.18 32.62 23.41ZM33.99 -0.02L1.99 -0.02C0.88 -0.02 -0.01 0.88 -0.01 1.99L-0.01 29.99C-0.01 31.1 0.88 31.99 1.99 31.99L33.99 31.99C35.1 31.99 35.99 31.1 35.99 29.99L35.99 1.99C35.99 0.88 35.1 -0.02 33.99 -0.02ZM31.99 26.99C31.99 27.54 31.54 27.99 30.99 27.99L5.99 27.99L4.99 27.99C4.43 27.99 3.99 27.54 3.99 26.99L3.99 25.99L3.99 4.99C3.99 4.43 4.43 3.99 4.99 3.99L30.99 3.99C31.54 3.99 31.99 4.43 31.99 4.99L31.99 26.99Z" />
		</g>
	</g>
</svg>