<svg xmlns="http://www.w3.org/2000/svg" viewBox="0 0 22 20" width="22" height="20">
	<style>
		tspan { white-space:pre }
		.shp0 { fill: #6d6b6b } 
	</style>
	<g id="About the app">
		<g id="icons">
			<path id="Painting" class="shp0" d="M9.65 7.13C9.65 8.46 8.57 9.53 7.25 9.53C5.92 9.53 4.85 8.46 4.85 7.13C4.85 5.8 5.92 4.73 7.25 4.73C8.57 4.73 9.65 5.8 9.65 7.13ZM5.2 18.78L5.2 18.78C4.73 18.32 4.73 17.57 5.2 17.1L14.82 7.48C15.28 7.01 16.04 7.01 16.5 7.48L16.5 7.48C16.97 7.94 16.97 8.7 16.5 9.16L6.88 18.78C6.41 19.25 5.66 19.25 5.2 18.78ZM19.63 13.98L14.8 9.15C14.33 8.69 14.33 7.94 14.8 7.48L14.8 7.48C15.26 7.01 16.01 7.01 16.47 7.48L21.3 12.31C21.77 12.77 21.77 13.52 21.3 13.98L21.3 13.98C20.84 14.45 20.09 14.45 19.63 13.98ZM20.45 -0.07L1.25 -0.07C0.58 -0.07 0.05 0.47 0.05 1.13L0.05 17.93C0.05 18.6 0.58 19.13 1.25 19.13L20.45 19.13C21.11 19.13 21.65 18.6 21.65 17.93L21.65 1.13C21.65 0.47 21.11 -0.07 20.45 -0.07ZM19.25 16.13C19.25 16.46 18.98 16.73 18.65 16.73L3.65 16.73L3.05 16.73C2.72 16.73 2.45 16.46 2.45 16.13L2.45 15.53L2.45 2.93C2.45 2.6 2.72 2.33 3.05 2.33L18.65 2.33C18.98 2.33 19.25 2.6 19.25 2.93L19.25 16.13Z" />
		</g>
	</g>
</svg>