<svg xmlns="http://www.w3.org/2000/svg" viewBox="0 0 36 32" width="36" height="32">
	<style>
		tspan { white-space:pre }
		.shp0 { fill: #ffffff } 
	</style>
	<g id="Features">
		<g id="F6">
			<path id="Printer" class="shp0" d="M24 6L12 6C10.9 6 10 5.1 10 4L10 2C10 0.9 10.9 0 12 0L24 0C25.1 0 26 0.9 26 2L26 4C26 5.1 25.1 6 24 6ZM26 28L10 28L10 22L6 22L6 30C6 31.1 6.9 32 8 32L28 32C29.1 32 30 31.1 30 30L30 22L26 22L26 28ZM32 4L30 4L2 4C0.9 4 0 4.9 0 6L0 22C0 23.1 0.9 24 2 24L10 24L10 20L26 20L26 24L34 24C35.1 24 36 23.1 36 22L36 10L36 8L36 6C36 4.9 35.1 4 34 4L32 4ZM32 10L32 19C32 19.55 31.55 20 31 20L30 20L30 18C30 16.9 29.1 16 28 16L26 16L10 16L8 16C6.9 16 6 16.9 6 18L6 20L5 20C4.45 20 4 19.55 4 19L4 9C4 8.45 4.45 8 5 8L30 8L31 8C31.55 8 32 8.45 32 9L32 10Z" />
		</g>
	</g>
</svg>