<svg xmlns="http://www.w3.org/2000/svg" viewBox="0 0 32 32" width="32" height="32">
	<style>
		tspan { white-space:pre }
		.shp0 { fill: #ffffff } 
	</style>
	<g id="Features">
		<g id="F1">
			<path id="Stalking You" class="shp0" d="M27.2 12L26.92 12C27.6 10.82 28 9.46 28 8C28 3.58 24.42 0 20 0C15.58 0 12 3.58 12 8C7.58 8 4 11.58 4 16C4 17.46 4.4 18.82 5.08 20L4.8 20C1.95 21.28 0 24.01 0 26.93L0 30C0 30.7 1.11 32 1.94 32L22.25 32C23.08 32 24 30.7 24 30L24 26.93C24 25.91 23.75 24.92 23.32 24L30.25 24C31.08 24 32 22.7 32 22L32 18.93C32 16.01 30.05 13.28 27.2 12ZM20 4C22.21 4 24 5.79 24 8C24 10.21 22.21 12 20 12C19.58 12 19.18 11.92 18.8 11.79C18.14 10.74 17.26 9.86 16.21 9.2C16.08 8.82 16 8.42 16 8C16 5.79 17.79 4 20 4ZM12 12C14.21 12 16 13.79 16 16C16 18.21 14.21 20 12 20C10.02 20 8.39 18.56 8.07 16.68C8.03 16.46 8 16.23 8 16C8 13.79 9.79 12 12 12ZM20 28L4 28L4 26.93C4 25.84 4.71 24.71 5.8 24L9.94 24L18.2 24C19.29 24.71 20 25.84 20 26.93L20 28ZM28 20L19.2 20L18.92 20C19.6 18.82 20 17.46 20 16L26.2 16C27.29 16.71 28 17.84 28 18.93L28 20Z" />
		</g>
	</g>
</svg>